<?xml version="1.0" encoding="UTF-8" standalone="no"?>
<svg
   id="Layer_1"
   data-name="Layer 1"
   viewBox="0 0 182 182"
   version="1.1"
   sodipodi:docname="logo-quadratic.svg"
   width="182"
   height="182"
   inkscape:version="1.2.1 (9c6d41e410, 2022-07-14, custom)"
   xmlns:inkscape="http://www.inkscape.org/namespaces/inkscape"
   xmlns:sodipodi="http://sodipodi.sourceforge.net/DTD/sodipodi-0.dtd"
   xmlns="http://www.w3.org/2000/svg"
   xmlns:svg="http://www.w3.org/2000/svg">
  <sodipodi:namedview
     id="namedview27"
     pagecolor="#ffffff"
     bordercolor="#666666"
     borderopacity="1.0"
     inkscape:showpageshadow="2"
     inkscape:pageopacity="0.0"
     inkscape:pagecheckerboard="0"
     inkscape:deskcolor="#d1d1d1"
     showgrid="false"
     inkscape:zoom="1.2967033"
     inkscape:cx="249.47881"
     inkscape:cy="91.385593"
     inkscape:window-width="1920"
     inkscape:window-height="997"
     inkscape:window-x="1920"
     inkscape:window-y="0"
     inkscape:window-maximized="1"
     inkscape:current-layer="Layer_1" />
  <defs
     id="defs4">
    <style
       id="style2">
      .cls-1 {
        fill: #fff;
      }

      .cls-2 {
        fill: #654ff0;
      }
    </style>
  </defs>
  <rect
     class="cls-1"
     x="107"
     y="125"
     width="50"
     height="32"
     id="rect6" />
  <path
     class="cls-2"
     d="m 135.18,97 c 0,-0.13 -0.01,-7.24 -0.02,-7.37 h 27.51 v 71.33 H 91.33 V 89.63 h 27.51 c 0,0.13 -0.02,7.24 -0.02,7.37 m 32.59,56.33 h 4.9 l -7.43,-25.25 h -7.45 l -6.12,25.25 h 4.75 l 1.24,-5.62 h 8.49 l 1.61,5.62 z m -26.03,0 h 4.69 l 6.02,-25.25 h -4.63 l -3.69,17.4 h -0.06 l -3.5,-17.4 h -4.42 l -3.9,17.19 h -0.06 l -3.23,-17.19 h -4.72 l 5.44,25.25 h 4.78 l 3.75,-17.19 h 0.06 z m 18.89,-19.03 h 1.99 l 2.37,9.27 h -6.42 z"
     id="path8" />
  <g
     id="g24">
    <path
       d="m 89,49.66 c 0,10.6 -8.8,20 -20,20 H 29 v 20 H 19 v -70 h 50 c 10.7,0 19.7,8.9 20,20 z m -10,-10 c 0,-5.5 -4.5,-10 -10,-10 H 29 v 30 h 40 c 5.5,0 10,-4.5 10,-10 z"
       id="path10" />
    <path
       d="m 132,67.66 v 22 h -10 v -22 l -30,-33 v -15 h 10 v 10.9 l 25,27.5 25,-27.5 v -10.9 h 10 v 15 z"
       id="path12" />
  </g>
</svg>
